<svg width="22" height="17" viewBox="0 0 22 17" fill="none" xmlns="http://www.w3.org/2000/svg">
<path d="M15.5455 16V14.3333C15.5455 13.4493 15.1623 12.6014 14.4804 11.9763C13.7984 11.3512 12.8735 11 11.9091 11H4.63636C3.67194 11 2.74702 11.3512 2.06507 11.9763C1.38312 12.6014 1 13.4493 1 14.3333V16" stroke="white" stroke-linecap="round" stroke-linejoin="round"/>
<path d="M8.27284 7.66666C10.2811 7.66666 11.9092 6.17427 11.9092 4.33333C11.9092 2.49238 10.2811 0.999992 8.27284 0.999992C6.26453 0.999992 4.63647 2.49238 4.63647 4.33333C4.63647 6.17427 6.26453 7.66666 8.27284 7.66666Z" stroke="white" stroke-linecap="round" stroke-linejoin="round"/>
<path d="M15.5454 7.66666H21" stroke="white" stroke-linecap="round" stroke-linejoin="round"/>
<path d="M18.2727 5.16666V10.1667" stroke="white" stroke-linecap="round" stroke-linejoin="round"/>
</svg>
